<?xml version="1.0" encoding="UTF-8"?>
<svg version="1.1" xmlns="http://www.w3.org/2000/svg" width="500" height="500">
<path d="M0 0 C9.26017804 1.37187823 18.51625991 7.28426679 25.375 13.5 C25.375 14.16 25.375 14.82 25.375 15.5 C25.99375 15.726875 26.6125 15.95375 27.25 16.1875 C29.98910209 17.87929835 30.42524472 19.49244161 31.375 22.5 C32.035 22.5 32.695 22.5 33.375 22.5 C38.57015221 33.49331317 37.78737902 44.61714 37.375 56.5 C36.055 56.83 34.735 57.16 33.375 57.5 C31.86908849 55.12224498 30.49079723 52.75966652 29.34375 50.1875 C25.73559671 42.19105217 20.40571552 36.31458987 12.375 32.5 C10.99617938 32.11731313 9.60991007 31.76084724 8.21875 31.42578125 C6.9503125 31.12027344 5.681875 30.81476563 4.375 30.5 C4.37722061 31.33112808 4.37944122 32.16225616 4.38172913 33.01856995 C4.40190784 40.9164649 4.41706273 48.81435099 4.42681217 56.71226597 C4.4319932 60.7709979 4.43900209 64.82970823 4.45043945 68.88842773 C4.46144064 72.81771489 4.46731265 76.74698149 4.46987724 80.67628288 C4.47170088 82.16270203 4.47526045 83.64912027 4.48073006 85.13553047 C4.50722352 92.64569616 4.45036814 100.15615036 4.11889648 107.65991211 C4.07337143 108.8330748 4.02784637 110.00623749 3.98094177 111.21495056 C2.99032798 116.58545882 0.54983515 119.64766862 -3.8125 122.8125 C-10.24710812 126.09154337 -16.59770944 125.84700746 -23.484375 124.265625 C-26.09654991 123.33134346 -28.28991439 121.98596357 -30.625 120.5 C-30.63958252 121.12044189 -30.65416504 121.74088379 -30.66918945 122.38012695 C-30.74366588 125.19154633 -30.84032564 128.00177749 -30.9375 130.8125 C-30.97133789 132.27719727 -30.97133789 132.27719727 -31.00585938 133.77148438 C-31.04130859 134.70927734 -31.07675781 135.64707031 -31.11328125 136.61328125 C-31.13946533 137.47735596 -31.16564941 138.34143066 -31.19262695 139.23168945 C-31.70960081 141.9438318 -32.43947071 142.85584337 -34.625 144.5 C-37.125 144.9375 -37.125 144.9375 -39.625 144.5 C-42.25727944 141.68644673 -43.00370107 139.74191806 -43.05737305 135.92529297 C-43.07716721 135.02269745 -43.09696136 134.12010193 -43.11735535 133.19015503 C-43.12374527 132.21732574 -43.13013519 131.24449646 -43.13671875 130.2421875 C-43.15466995 129.22512726 -43.17262115 128.20806702 -43.19111633 127.16018677 C-43.24524153 123.89850143 -43.27899831 120.63695564 -43.3125 117.375 C-43.3456997 115.23305228 -43.38019179 113.09112419 -43.41601562 110.94921875 C-43.49846034 105.76599839 -43.55372514 100.58297775 -43.59661865 95.39929199 C-43.62368149 92.63469259 -43.6667574 89.8707737 -43.71337891 87.10644531 C-43.73261638 85.49024048 -43.75136667 83.87402975 -43.76953125 82.2578125 C-43.78513596 81.53697479 -43.80074066 80.81613708 -43.81681824 80.07345581 C-43.8453332 76.0913966 -43.38764927 73.0843575 -41.625 69.5 C-38.985 69.5 -36.345 69.5 -33.625 69.5 C-33.625 70.16 -33.625 70.82 -33.625 71.5 C-32.965 71.5 -32.305 71.5 -31.625 71.5 C-31.295 79.42 -30.965 87.34 -30.625 95.5 C-29.305 94.51 -27.985 93.52 -26.625 92.5 C-24.1796875 91.6640625 -24.1796875 91.6640625 -21.5 91.125 C-20.19675781 90.83496094 -20.19675781 90.83496094 -18.8671875 90.5390625 C-15.61753313 90.49991004 -13.49757467 91.03446186 -10.42236328 91.99755859 C-9.52349396 92.27634857 -8.62462463 92.55513855 -7.69851685 92.84237671 C-7.01425629 93.0593924 -6.32999573 93.27640808 -5.625 93.5 C-5.63166183 92.39388367 -5.63832367 91.28776733 -5.64518738 90.14813232 C-5.70596955 79.7303791 -5.75095875 69.3126618 -5.78043652 58.89477158 C-5.79610073 53.53865933 -5.81735294 48.18269009 -5.85131836 42.82666016 C-5.88388464 37.65899497 -5.90184732 32.49146745 -5.90963173 27.32370758 C-5.91518013 25.35090212 -5.92601466 23.37810431 -5.94219017 21.40535736 C-5.96392806 18.64474634 -5.96696844 15.88470611 -5.96557617 13.12402344 C-5.976362 12.30618881 -5.98714783 11.48835419 -5.9982605 10.64573669 C-5.98018469 7.33932034 -5.85761902 4.9298118 -4.26777649 1.99224854 C-2.625 0.5 -2.625 0.5 0 0 Z " fill="#732BF0" transform="translate(183.625,163.5)"/>
<path d="M0 0 C2.97 0.495 2.97 0.495 6 1 C6 1.66 6 2.32 6 3 C7.051875 3.103125 8.10375 3.20625 9.1875 3.3125 C12.90104094 3.98215492 14.99303465 4.78899607 18 7 C18.33 7.66 18.66 8.32 19 9 C19.99 9.33 20.98 9.66 22 10 C22.33 10.66 22.66 11.32 23 12 C24.11375 12.45375 25.2275 12.9075 26.375 13.375 C29.87363058 14.94335164 31.19889895 15.71563927 33 19 C33 19.66 33 20.32 33 21 C33.66 21 34.32 21 35 21 C40.19515221 31.99331317 39.41237902 43.11714 39 55 C37.02 55.495 37.02 55.495 35 56 C33.49408849 53.62224498 32.11579723 51.25966652 30.96875 48.6875 C27.54444961 41.09850995 23.18950512 36.44387799 16 32.25 C15.34 31.8375 14.68 31.425 14 31 C14 30.01 14 29.02 14 28 C11.03 28.33 8.06 28.66 5 29 C4.98604691 29.80766312 4.97209381 30.61532623 4.9577179 31.44746399 C4.82192438 39.05547891 4.66260062 46.66246253 4.476758 54.26940632 C4.38204305 58.18037381 4.29647109 62.09109864 4.23168945 66.00268555 C4.16884608 69.777016 4.08212321 73.55010748 3.97875023 77.32353783 C3.94350697 78.76386405 3.91690273 80.20442821 3.89904213 81.64507484 C3.87257559 83.66135396 3.81266239 85.67711042 3.7512207 87.69262695 C3.72679398 88.84068314 3.70236725 89.98873932 3.67720032 91.17158508 C3 94 3 94 0.45304871 95.89421082 C-0.35645737 96.25912125 -1.16596344 96.62403168 -2 97 C-2.04631093 84.94340518 -2.08186292 72.88683147 -2.10362434 60.83016586 C-2.11406796 55.23196016 -2.12823778 49.63381525 -2.15087891 44.03564453 C-2.17258656 38.6345688 -2.18456427 33.23355159 -2.18975449 27.83243561 C-2.19345397 25.77032805 -2.20067799 23.70822374 -2.21146011 21.64614105 C-2.22594732 18.76109355 -2.22797909 15.87628887 -2.22705078 12.99121094 C-2.23424133 12.13597336 -2.24143188 11.28073578 -2.24884033 10.39958191 C-2.246091 9.61156693 -2.24334167 8.82355194 -2.24050903 8.01165771 C-2.24235262 7.32953091 -2.24419621 6.6474041 -2.24609566 5.94460678 C-1.95442299 3.63985805 -1.13301853 2.01220398 0 0 Z " fill="#772AFB" transform="translate(182,165)"/>
<path d="M0 0 C4.805625 -0.0825 9.61125 -0.165 14.5625 -0.25 C16.06498291 -0.28641602 17.56746582 -0.32283203 19.11547852 -0.36035156 C31.65999277 -0.46472785 31.65999277 -0.46472785 37 4 C37.495 5.485 37.495 5.485 38 7 C38.66 7 39.32 7 40 7 C42.79704301 13.14450814 43.40189694 19.96384091 41.16015625 26.41796875 C38.28415779 31.57927239 34.56904636 34.10274861 29 36 C25.63743067 36.43789086 22.38281523 36.3840316 19 36.25 C14.545 36.12625 14.545 36.12625 10 36 C10 42.27 10 48.54 10 55 C6.7 55 3.4 55 0 55 C0 36.85 0 18.7 0 0 Z M10 8 C10 14.6 10 21.2 10 28 C20.02980944 28.71822558 20.02980944 28.71822558 29 25 C31.67089167 20.99366249 31.70693873 17.71008572 31 13 C28.80168636 9.96784325 27.55036806 9.18345602 24 8 C19.33032246 7.86409553 14.67262015 7.95713193 10 8 Z " fill="#E2E3E4" transform="translate(220,235)"/>
<path d="M0 0 C0.83144531 0.76183594 0.83144531 0.76183594 1.6796875 1.5390625 C1.6796875 2.1990625 1.6796875 2.8590625 1.6796875 3.5390625 C2.3396875 3.5390625 2.9996875 3.5390625 3.6796875 3.5390625 C4.36860986 4.84001856 5.0294811 6.15583076 5.6796875 7.4765625 C6.0509375 8.20746094 6.4221875 8.93835938 6.8046875 9.69140625 C7.6796875 12.5390625 7.6796875 12.5390625 7.6796875 21.5390625 C-1.8903125 21.5390625 -11.4603125 21.5390625 -21.3203125 21.5390625 C-19.13971417 28.38732145 -19.13971417 28.38732145 -15.3203125 30.5390625 C-11.94724632 31.12320952 -11.94724632 31.12320952 -8.3203125 30.5390625 C-6.8971875 29.270625 -6.8971875 29.270625 -5.4453125 27.9765625 C-1.99321953 25.28392998 -1.53378161 25.24105679 2.5546875 25.7265625 C3.93475913 25.97023851 5.31228679 26.23215701 6.6796875 26.5390625 C4.6995162 32.4795764 2.28812603 35.62026223 -3.3203125 38.5390625 C-9.68126664 40.54511191 -16.42119957 40.19578893 -22.53515625 37.5703125 C-27.8154708 34.51997762 -30.21074183 29.61198853 -31.8828125 23.96875 C-33.11937411 17.10141676 -31.63499279 10.57651589 -28.3203125 4.5390625 C-24.96045346 0.05925044 -21.3727381 -1.68899988 -16.0859375 -3.08984375 C-10.50560852 -3.83861671 -4.79575164 -3.01954733 0 0 Z M-18.3203125 6.5390625 C-20.49846392 9.46830061 -21.3203125 10.86188157 -21.3203125 14.5390625 C-15.0503125 14.5390625 -8.7803125 14.5390625 -2.3203125 14.5390625 C-3.4722287 9.93139769 -4.73805204 8.55141789 -8.3203125 5.5390625 C-12.23222289 4.07209611 -14.71644317 4.45261184 -18.3203125 6.5390625 Z " fill="#E2E3E3" transform="translate(390.3203125,251.4609375)"/>
<path d="M0 0 C0.01401855 1.29417847 0.01401855 1.29417847 0.02832031 2.61450195 C0.07235722 5.8186184 0.13397894 9.02177728 0.20751953 12.2253418 C0.23572797 13.61128396 0.25694333 14.99738696 0.27099609 16.38354492 C0.29242421 18.37707404 0.34117014 20.37025046 0.390625 22.36328125 C0.41157227 23.56251221 0.43251953 24.76174316 0.45410156 25.99731445 C0.72230475 29.07919427 0.72230475 29.07919427 2.890625 30.91015625 C5.49593379 32.25623246 6.87999152 32.15176608 9.75 31.6875 C10.54921875 31.56761719 11.3484375 31.44773437 12.171875 31.32421875 C12.77515625 31.21722656 13.3784375 31.11023438 14 31 C15.1007076 27.6978772 15.20627072 25.05916721 15.31640625 21.58203125 C15.35830078 20.32841797 15.40019531 19.07480469 15.44335938 17.78320312 C15.48267578 16.47287109 15.52199219 15.16253906 15.5625 13.8125 C15.60570992 12.47720022 15.649325 11.14191348 15.69335938 9.80664062 C15.79956502 6.53786703 15.90160997 3.26901667 16 0 C19.63 0 23.26 0 27 0 C27 13.2 27 26.4 27 40 C23.37 40 19.74 40 16 40 C15.67 39.34 15.34 38.68 15 38 C14.01 38.495 13.02 38.99 12 39.5 C6.67615242 41.75860201 2.15782585 41.8549876 -3.3125 39.6875 C-7.53152132 37.03834708 -9.24026652 35.31280709 -10.58984375 30.40283203 C-11.53598423 24.86002572 -11.19854487 19.16605323 -11.125 13.5625 C-11.11597656 12.25861328 -11.10695313 10.95472656 -11.09765625 9.61132812 C-11.07418397 6.40736168 -11.04134727 3.20377736 -11 0 C-9.54263913 -0.19491452 -8.08405407 -0.38069358 -6.625 -0.5625 C-5.81289063 -0.66691406 -5.00078125 -0.77132812 -4.1640625 -0.87890625 C-2 -1 -2 -1 0 0 Z " fill="#DEDEDF" transform="translate(275,250)"/>
<path d="M0 0 C1.4375 2.1875 1.4375 2.1875 2 4 C2.66 4 3.32 4 4 4 C4 5.32 4 6.64 4 8 C-1.22344013 9.0623946 -1.22344013 9.0623946 -4 9 C-5.6825613 7.68678142 -7.34997172 6.35386936 -9 5 C-12.73723433 5.13986273 -12.73723433 5.13986273 -16 6 C-16.33 7.32 -16.66 8.64 -17 10 C-15.57107422 10.39832031 -15.57107422 10.39832031 -14.11328125 10.8046875 C-12.23189453 11.33449219 -12.23189453 11.33449219 -10.3125 11.875 C-9.07113281 12.22304688 -7.82976562 12.57109375 -6.55078125 12.9296875 C-3.61183146 13.81557556 -0.82228113 14.80201451 2 16 C2 16.66 2 17.32 2 18 C2.66 18 3.32 18 4 18 C6.34728069 21.66762608 6.4430704 24.71698615 6 29 C3.71645754 33.39793364 1.47668358 35.8735753 -3 38 C-9.4523644 39.90638039 -15.99779266 39.6658498 -22.20703125 37.05078125 C-25.83645323 34.92373438 -28.45214005 31.9090027 -29.62890625 27.80859375 C-29.75136719 27.21175781 -29.87382812 26.61492187 -30 26 C-26.3060303 25.77071912 -22.68749395 25.63500788 -19 26 C-16.8125 28 -16.8125 28 -15 30 C-12.00379577 30.69664831 -10.15495957 30.45070851 -7 30 C-4.91783124 27.6450037 -4.91783124 27.6450037 -4 25 C-4.66 25 -5.32 25 -6 25 C-6 24.34 -6 23.68 -6 23 C-6.94875 22.896875 -7.8975 22.79375 -8.875 22.6875 C-21.99201878 20.71461506 -21.99201878 20.71461506 -26.0625 16.125 C-28.38499013 12.37904817 -29.56785876 10.42189336 -28.54296875 6.05078125 C-27.19795407 2.466284 -25.87732844 0.51004244 -22.52734375 -1.4375 C-14.19318968 -4.7390631 -7.8398315 -4.15049903 0 0 Z " fill="#D9DADB" transform="translate(351,252)"/>
<path d="M0 0 C5.49418605 -0.36627907 5.49418605 -0.36627907 7.8125 1.3125 C11.7774772 6.94694128 10.34626614 16.01352043 10.4050293 22.66918945 C10.42665766 24.5131294 10.46081771 26.35696537 10.50756836 28.20043945 C10.5744215 30.86195583 10.60199638 33.52135743 10.62109375 36.18359375 C10.64892441 37.00661484 10.67675507 37.82963593 10.70542908 38.67759705 C10.6972882 40.93932849 10.624521 42.82547511 10 45 C7.13696289 47.58618164 7.13696289 47.58618164 4 49 C1.1875 48.4375 1.1875 48.4375 -1 47 C-1.91861784 44.24414648 -2.12204322 42.6403931 -2.11352539 39.80395508 C-2.11344986 38.96331009 -2.11337433 38.1226651 -2.11329651 37.25654602 C-2.10813522 36.35333115 -2.10297394 35.45011627 -2.09765625 34.51953125 C-2.0962413 33.59154221 -2.09482635 32.66355316 -2.09336853 31.70744324 C-2.08776937 28.74242942 -2.07521704 25.77749101 -2.0625 22.8125 C-2.05748489 20.80273547 -2.052922 18.79296975 -2.04882812 16.78320312 C-2.03780021 11.85543968 -2.02053617 6.92773263 -2 2 C-1.34 2 -0.68 2 0 2 C0 1.34 0 0.68 0 0 Z " fill="#772AFD" transform="translate(123,246)"/>
<path d="M0 0 C3.3 0 6.6 0 10 0 C10 18.15 10 36.3 10 55 C6.7 55 3.4 55 0 55 C0 36.85 0 18.7 0 0 Z " fill="#E1E1E2" transform="translate(308,235)"/>
<path d="M0 0 C1 1 1 1 1.11352539 3.50024414 C1.10828857 4.58426514 1.10305176 5.66828613 1.09765625 6.78515625 C1.09443359 7.95498047 1.09121094 9.12480469 1.08789062 10.33007812 C1.07951172 11.56177734 1.07113281 12.79347656 1.0625 14.0625 C1.05798828 15.29806641 1.05347656 16.53363281 1.04882812 17.80664062 C1.03699608 20.87114117 1.02051173 23.93554721 1 27 C-2.6640625 28.171875 -2.6640625 28.171875 -5.6875 26.625 C-8 25 -8 25 -9 24 C-9.04063832 22.33382885 -9.042721 20.66611905 -9 19 C-10.2375 18.87625 -11.475 18.7525 -12.75 18.625 C-15.8762197 18.24253695 -18.28879237 17.69450477 -21 16 C-21 14.02 -21 12.04 -21 10 C-19.5422647 9.664061 -18.08378894 9.33133376 -16.625 9 C-15.40683594 8.7215625 -15.40683594 8.7215625 -14.1640625 8.4375 C-12 8 -12 8 -10 8 C-9.9175 7.05125 -9.835 6.1025 -9.75 5.125 C-9 2 -9 2 -7.25 0.625 C-4.71168218 -0.08008828 -2.62251522 -0.21263637 0 0 Z " fill="#772CF7" transform="translate(113,256)"/>
<path d="M0 0 C9.49232705 1.40627067 18.17001744 7.42079597 25.375 13.5 C25.045 14.16 24.715 14.82 24.375 15.5 C23.055 14.84 21.735 14.18 20.375 13.5 C20.375 12.84 20.375 12.18 20.375 11.5 C19.055 11.17 17.735 10.84 16.375 10.5 C16.375 9.84 16.375 9.18 16.375 8.5 C12.45061214 6.83510818 8.48399581 5.62795963 4.375 4.5 C4.375 3.84 4.375 3.18 4.375 2.5 C2.395 2.5 0.415 2.5 -1.625 2.5 C-2.91958572 6.38375716 -2.75603781 10.05560117 -2.73852539 14.10229492 C-2.73867142 14.98055435 -2.73881744 15.85881378 -2.7389679 16.76368713 C-2.73827072 19.66930605 -2.73048739 22.57486102 -2.72265625 25.48046875 C-2.72079138 27.49400294 -2.7193678 29.50753758 -2.71836853 31.52107239 C-2.71454879 36.82291922 -2.70472312 42.12473869 -2.69366455 47.42657471 C-2.68343877 52.83581167 -2.6788684 58.24505304 -2.67382812 63.65429688 C-2.66310039 74.26954327 -2.64603046 84.88476936 -2.625 95.5 C-3.23902176 95.4297612 -3.85304352 95.3595224 -4.485672 95.28715515 C-5.29324448 95.19585831 -6.10081696 95.10456146 -6.93286133 95.01049805 C-7.73250809 94.91963425 -8.53215485 94.82877045 -9.35603333 94.7351532 C-16.11151082 94.03502298 -22.25021737 93.95008695 -28.625 96.5 C-29.615 96.5 -30.605 96.5 -31.625 96.5 C-27.80351699 92.54674171 -24.01619512 91.61535368 -18.83203125 90.50390625 C-15.62154667 90.49999579 -13.46579507 91.04912835 -10.42456055 91.99975586 C-9.07578072 92.41746498 -9.07578072 92.41746498 -7.69975281 92.84361267 C-7.01508438 93.06022049 -6.33041595 93.27682831 -5.625 93.5 C-5.63166183 92.39388367 -5.63832367 91.28776733 -5.64518738 90.14813232 C-5.70596955 79.7303791 -5.75095875 69.3126618 -5.78043652 58.89477158 C-5.79610073 53.53865933 -5.81735294 48.18269009 -5.85131836 42.82666016 C-5.88388464 37.65899497 -5.90184732 32.49146745 -5.90963173 27.32370758 C-5.91518013 25.35090212 -5.92601466 23.37810431 -5.94219017 21.40535736 C-5.96392806 18.64474634 -5.96696844 15.88470611 -5.96557617 13.12402344 C-5.976362 12.30618881 -5.98714783 11.48835419 -5.9982605 10.64573669 C-5.98018469 7.33932034 -5.85761902 4.9298118 -4.26777649 1.99224854 C-2.625 0.5 -2.625 0.5 0 0 Z " fill="#5829A7" transform="translate(183.625,163.5)"/>
<path d="M0 0 C0.06534381 9.87395211 0.06662928 19.74646153 0.01245117 29.62042236 C0.00411636 31.21331144 -0.00287148 32.80620811 -0.00854492 34.39910889 C-0.02626669 39.11753011 -0.07096989 43.83431566 -0.15359497 48.55206299 C-0.17616257 50.05663727 -0.19008594 51.56136652 -0.19528198 53.06610107 C-0.2044417 55.17669893 -0.24480699 57.28451214 -0.29296875 59.39453125 C-0.3086792 60.59956299 -0.32438965 61.80459473 -0.34057617 63.04614258 C-0.55818604 64.02091553 -0.7757959 64.99568848 -1 66 C-2.65 66.99 -4.3 67.98 -6 69 C-5.67 46.89 -5.34 24.78 -5 2 C-1 0 -1 0 0 0 Z " fill="#762AFC" transform="translate(186,193)"/>
<path d="M0 0 C1.23556641 0.01740234 1.23556641 0.01740234 2.49609375 0.03515625 C3.32238281 0.04417969 4.14867187 0.05320313 5 0.0625 C5.63808594 0.07410156 6.27617187 0.08570313 6.93359375 0.09765625 C6.93359375 0.75765625 6.93359375 1.41765625 6.93359375 2.09765625 C4.29359375 1.76765625 1.65359375 1.43765625 -1.06640625 1.09765625 C-1.06418564 1.92878433 -1.06196503 2.75991241 -1.05967712 3.6162262 C-1.03949841 11.51412115 -1.02434352 19.41200724 -1.01459408 27.30992222 C-1.00941305 31.36865415 -1.00240416 35.42736448 -0.9909668 39.48608398 C-0.97996561 43.41537114 -0.9740936 47.34463774 -0.97152901 51.27393913 C-0.96970537 52.76035828 -0.9661458 54.24677652 -0.96067619 55.73318672 C-0.93418273 63.24335241 -0.99103811 70.75380661 -1.32250977 78.25756836 C-1.36803482 79.43073105 -1.41355988 80.60389374 -1.46046448 81.81260681 C-2.17850257 85.70537464 -3.64137084 88.00322656 -6.06640625 91.09765625 C-6.39640625 91.09765625 -6.72640625 91.09765625 -7.06640625 91.09765625 C-6.73640625 88.78765625 -6.40640625 86.47765625 -6.06640625 84.09765625 C-5.40640625 84.09765625 -4.74640625 84.09765625 -4.06640625 84.09765625 C-4.06862686 83.51503525 -4.07084747 82.93241425 -4.07313538 82.33213806 C-4.25314597 32.78053991 -4.25314597 32.78053991 -3.62890625 13.41015625 C-3.58967041 12.14357178 -3.55043457 10.8769873 -3.51000977 9.57202148 C-3.15992635 0.14933489 -3.15992635 0.14933489 0 0 Z " fill="#5E2FBE" transform="translate(189.06640625,192.90234375)"/>
<path d="M0 0 C2.99324263 1.0975223 3.84610901 1.67682892 5.25 4.625 C5.4975 5.40875 5.745 6.1925 6 7 C6.66 7 7.32 7 8 7 C13.19515221 17.99331317 12.41237902 29.11714 12 41 C10.02 41.495 10.02 41.495 8 42 C5.43399875 37.94841908 3.3560417 33.71817649 1.28125 29.40234375 C0.03694035 27.06926315 -1.35780504 25.06706516 -3 23 C-0.625 22.875 -0.625 22.875 2 23 C2.66 23.66 3.32 24.32 4 25 C7.13107836 21.61416198 7.33550778 19.28890538 7.1875 14.75 C7.16042969 13.67234375 7.13335937 12.5946875 7.10546875 11.484375 C7.07066406 10.66453125 7.03585938 9.8446875 7 9 C5.35 8.67 3.7 8.34 2 8 C1.34 5.36 0.68 2.72 0 0 Z " fill="#6F2CE3" transform="translate(209,179)"/>
<path d="M0 0 C5.49418605 -0.36627907 5.49418605 -0.36627907 7.8125 1.3125 C11.7774772 6.94694128 10.34626614 16.01352043 10.4050293 22.66918945 C10.42665766 24.5131294 10.46081771 26.35696537 10.50756836 28.20043945 C10.5744215 30.86195583 10.60199638 33.52135743 10.62109375 36.18359375 C10.64892441 37.00661484 10.67675507 37.82963593 10.70542908 38.67759705 C10.6972882 40.93932849 10.624521 42.82547511 10 45 C7.13696289 47.58618164 7.13696289 47.58618164 4 49 C1.1875 48.4375 1.1875 48.4375 -1 47 C-1.91861784 44.24414648 -2.12204322 42.6403931 -2.11352539 39.80395508 C-2.11344986 38.96331009 -2.11337433 38.1226651 -2.11329651 37.25654602 C-2.10813522 36.35333115 -2.10297394 35.45011627 -2.09765625 34.51953125 C-2.0962413 33.59154221 -2.09482635 32.66355316 -2.09336853 31.70744324 C-2.08776937 28.74242942 -2.07521704 25.77749101 -2.0625 22.8125 C-2.05748489 20.80273547 -2.052922 18.79296975 -2.04882812 16.78320312 C-2.03780021 11.85543968 -2.02053617 6.92773263 -2 2 C-1.34 2 -0.68 2 0 2 C0 1.34 0 0.68 0 0 Z M0 3 C-0.02467332 8.80240568 -0.04284724 14.60478098 -0.05493164 20.40722656 C-0.0599681 22.38216687 -0.06679751 24.35710343 -0.07543945 26.33203125 C-0.08753508 29.16667605 -0.0932351 32.00127166 -0.09765625 34.8359375 C-0.10539818 36.16569107 -0.10539818 36.16569107 -0.11329651 37.52230835 C-0.25402092 41.89771239 -0.25402092 41.89771239 1 46 C2.32 46 3.64 46 5 46 C5 45.34 5 44.68 5 44 C5.99 44 6.98 44 8 44 C8.67415164 34.70633817 9.1045688 25.44503029 9.125 16.125 C9.12951172 15.26358398 9.13402344 14.40216797 9.13867188 13.51464844 C9.13577148 12.30470215 9.13577148 12.30470215 9.1328125 11.0703125 C9.13168457 10.35633301 9.13055664 9.64235352 9.12939453 8.90673828 C9.06504087 6.77633832 9.06504087 6.77633832 8 4 C5.36 3.67 2.72 3.34 0 3 Z " fill="#4D2998" transform="translate(123,246)"/>
<path d="M0 0 C-1.63412443 1.70840281 -2.86906094 2.93453047 -5 4 C-5 4.66 -5 5.32 -5 6 C-8.63 6.66 -12.26 7.32 -16 8 C-16.33 8.99 -16.66 9.98 -17 11 C-19.9375 10.625 -19.9375 10.625 -23 10 C-23.33 9.34 -23.66 8.68 -24 8 C-24.99 8.33 -25.98 8.66 -27 9 C-26.04996458 5.57987249 -25.13625109 4.11354257 -22.375 1.8125 C-14.28624306 -2.53146206 -8.71933131 -2.08366373 0 0 Z " fill="#D7D8D8" transform="translate(388,250)"/>
<path d="M0 0 C-1.9801713 5.9405139 -4.39156147 9.08119973 -10 12 C-12.96839537 12.96939484 -15.63830581 13.10826021 -18.75 13.0625 C-19.54921875 13.05347656 -20.3484375 13.04445313 -21.171875 13.03515625 C-21.77515625 13.02355469 -22.3784375 13.01195312 -23 13 C-23 12.67 -23 12.34 -23 12 C-20.36 12 -17.72 12 -15 12 C-14.7834375 10.824375 -14.7834375 10.824375 -14.5625 9.625 C-14 7 -14 7 -13 5 C-13.66 4.67 -14.32 4.34 -15 4 C-10.00284897 -1.25341519 -6.98382825 -1.56748145 0 0 Z " fill="#CACACB" transform="translate(397,278)"/>
<path d="M0 0 C3.70787035 -0.28328381 7.30318076 -0.46346554 11 0 C13.1875 2.5 13.1875 2.5 14 5 C13.01 5 12.02 5 11 5 C11.33 6.32 11.66 7.64 12 9 C8.17085234 10.4727491 5.71098899 9.50018704 2 8 C1.01 7.34 0.02 6.68 -1 6 C-0.67 4.02 -0.34 2.04 0 0 Z " fill="#E6E7E8" transform="translate(330,264)"/>
<path d="M0 0 C2.99324263 1.0975223 3.84610901 1.67682892 5.25 4.625 C5.4975 5.40875 5.745 6.1925 6 7 C6.66 7 7.32 7 8 7 C13.19515221 17.99331317 12.41237902 29.11714 12 41 C10.02 41.495 10.02 41.495 8 42 C7.67 41.34 7.34 40.68 7 40 C8.32 40 9.64 40 11 40 C10.67 33.4 10.34 26.8 10 20 C9.34 20 8.68 20 8 20 C7.67 16.37 7.34 12.74 7 9 C5.35 8.67 3.7 8.34 2 8 C1.34 5.36 0.68 2.72 0 0 Z " fill="#4F269B" transform="translate(209,179)"/>
<path d="M0 0 C1 1 1 1 1.11352539 3.50024414 C1.10828857 4.58426514 1.10305176 5.66828613 1.09765625 6.78515625 C1.09443359 7.95498047 1.09121094 9.12480469 1.08789062 10.33007812 C1.07951172 11.56177734 1.07113281 12.79347656 1.0625 14.0625 C1.05798828 15.29806641 1.05347656 16.53363281 1.04882812 17.80664062 C1.03699608 20.87114117 1.02051173 23.93554721 1 27 C-0.828125 27.58984375 -0.828125 27.58984375 -3 28 C-5.75 26.5625 -5.75 26.5625 -8 25 C-5.13822943 23.56911472 -3.06624227 24.40008303 0 25 C-0.08759258 22.45679484 -0.19453413 19.91683067 -0.3125 17.375 C-0.33505859 16.66214844 -0.35761719 15.94929688 -0.38085938 15.21484375 C-0.62006968 10.47413052 -1.54264397 7.17684645 -4 3 C-5.32 3 -6.64 3 -8 3 C-8.33 5.31 -8.66 7.62 -9 10 C-9.99 9.34 -10.98 8.68 -12 8 C-11.34 8 -10.68 8 -10 8 C-9.9175 7.05125 -9.835 6.1025 -9.75 5.125 C-9 2 -9 2 -7.25 0.625 C-4.71168218 -0.08008828 -2.62251522 -0.21263637 0 0 Z " fill="#5D2CB5" transform="translate(113,256)"/>
<path d="M0 0 C0.66 0 1.32 0 2 0 C2 8.25 2 16.5 2 25 C0.68 24.34 -0.64 23.68 -2 23 C-1.86068862 19.9163358 -1.71240719 16.83316583 -1.5625 13.75 C-1.52318359 12.87730469 -1.48386719 12.00460938 -1.44335938 11.10546875 C-1.40146484 10.26113281 -1.35957031 9.41679687 -1.31640625 8.546875 C-1.27974854 7.77182617 -1.24309082 6.99677734 -1.20532227 6.19824219 C-1.00396985 4.0425024 -0.58270703 2.08198525 0 0 Z " fill="#672BCF" transform="translate(150,235)"/>
<path d="M0 0 C0 0.66 0 1.32 0 2 C-0.969375 2.28875 -1.93875 2.5775 -2.9375 2.875 C-6.10664203 3.64214682 -6.10664203 3.64214682 -7 6 C-4.36 5.67 -1.72 5.34 1 5 C0.67 5.99 0.34 6.98 0 8 C1.32 8 2.64 8 4 8 C4 10.31 4 12.62 4 15 C3.67 15 3.34 15 3 15 C3 13.35 3 11.7 3 10 C1.14375 9.814375 1.14375 9.814375 -0.75 9.625 C-3.8762197 9.24253695 -6.28879237 8.69450477 -9 7 C-9 5.02 -9 3.04 -9 1 C-6.04335481 -0.4783226 -3.25770263 -0.06032783 0 0 Z " fill="#5A2AB3" transform="translate(101,265)"/>
<path d="M0 0 C2.64 0.33 5.28 0.66 8 1 C8.96088383 3.88265149 9.11670941 5.67662271 9.09765625 8.66796875 C9.09443359 9.56064453 9.09121094 10.45332031 9.08789062 11.37304688 C9.07951172 12.30181641 9.07113281 13.23058594 9.0625 14.1875 C9.05798828 15.12787109 9.05347656 16.06824219 9.04882812 17.03710938 C9.03704626 19.35813712 9.02059558 21.67903644 9 24 C8.67 24 8.34 24 8 24 C7.67 18.39 7.34 12.78 7 7 C6.01 7.495 6.01 7.495 5 8 C5 7.01 5 6.02 5 5 C2.525 6.485 2.525 6.485 0 8 C0 5.36 0 2.72 0 0 Z " fill="#762EF0" transform="translate(123,249)"/>
<path d="M0 0 C9.47761774 1.03392194 18.3107435 7.3617992 25.4375 13.375 C25.1075 14.035 24.7775 14.695 24.4375 15.375 C23.1175 14.715 21.7975 14.055 20.4375 13.375 C20.4375 12.715 20.4375 12.055 20.4375 11.375 C19.1175 11.045 17.7975 10.715 16.4375 10.375 C16.4375 9.715 16.4375 9.055 16.4375 8.375 C12.51311214 6.71010818 8.54649581 5.50295963 4.4375 4.375 C4.4375 3.715 4.4375 3.055 4.4375 2.375 C3.509375 2.375 2.58125 2.375 1.625 2.375 C-0.4375 2.375 -2.5 2.375 -4.5625 2.375 C-2.5625 0.375 -2.5625 0.375 0 0 Z " fill="#51289E" transform="translate(183.5625,163.625)"/>
<path d="M0 0 C0.33 0.66 0.66 1.32 1 2 C0.071875 1.835 -0.85625 1.67 -1.8125 1.5 C-9.08935389 0.47946561 -16.09945501 0.239782 -23 3 C-23.99 3 -24.98 3 -26 3 C-18.2852247 -4.46591158 -9.53062083 -3.65134175 0 0 Z " fill="#5529A7" transform="translate(178,257)"/>
<path d="M0 0 C0.66 0 1.32 0 2 0 C1.67 9.57 1.34 19.14 1 29 C0.67 29 0.34 29 0 29 C-0.7317814 22.1003468 -1.10627404 15.2473474 -1.125 8.3125 C-1.12951172 7.60544922 -1.13402344 6.89839844 -1.13867188 6.16992188 C-1.12384501 1.12384501 -1.12384501 1.12384501 0 0 Z " fill="#6333BC" transform="translate(179,167)"/>
<path d="M0 0 C1.98 0 3.96 0 6 0 C6 0.66 6 1.32 6 2 C6.99 2 7.98 2 9 2 C9 2.66 9 3.32 9 4 C16.92 3.505 16.92 3.505 25 3 C21.86976693 6.13023307 18.30170776 5.94647953 14 6 C8.79010068 5.39400202 4.26999063 4.16805756 0 1 C0 0.67 0 0.34 0 0 Z " fill="#431E85" transform="translate(153,283)"/>
<path d="M0 0 C0.33 0 0.66 0 1 0 C1 7.26 1 14.52 1 22 C-3 23 -3 23 -5.75 21.5625 C-6.4925 21.046875 -7.235 20.53125 -8 20 C-6 19 -6 19 0 20 C0 13.4 0 6.8 0 0 Z " fill="#502798" transform="translate(113,261)"/>
<path d="M0 0 C0.66 0.33 1.32 0.66 2 1 C2 1.66 2 2.32 2 3 C2.66 3 3.32 3 4 3 C4 4.32 4 5.64 4 7 C1.36 7.33 -1.28 7.66 -4 8 C-3.01 7.67 -2.02 7.34 -1 7 C-1.33 6.01 -1.66 5.02 -2 4 C-1.0625 1.8125 -1.0625 1.8125 0 0 Z " fill="#BEBEC1" transform="translate(351,253)"/>
<path d="M0 0 C1.98 0 3.96 0 6 0 C5.34 2.31 4.68 4.62 4 7 C1.49962266 4.82575883 0.56371414 3.26954202 0 0 Z " fill="#C4C5C7" transform="translate(321,278)"/>
<path d="M0 0 C2.31 0.33 4.62 0.66 7 1 C7 1.66 7 2.32 7 3 C6.34 3 5.68 3 5 3 C5 4.65 5 6.3 5 8 C4.01 7.67 3.02 7.34 2 7 C0.8125 3.4375 0.8125 3.4375 0 0 Z " fill="#632AC3" transform="translate(212,209)"/>
<path d="M0 0 C-3.85929145 2.57286097 -7.33214338 4 -12 4 C-5.27272727 -1.63636364 -5.27272727 -1.63636364 0 0 Z " fill="#492594" transform="translate(164,256)"/>
<path d="M0 0 C4.7517398 0.43197635 6.92000054 1.32769295 10 5 C9.67 5.66 9.34 6.32 9 7 C7.4972763 6.02501855 5.99788037 5.04490611 4.5 4.0625 C3.6646875 3.51722656 2.829375 2.97195312 1.96875 2.41015625 C1.3190625 1.94480469 0.669375 1.47945312 0 1 C0 0.67 0 0.34 0 0 Z " fill="#4D2597" transform="translate(196,195)"/>
<path d="M0 0 C1.98 0 3.96 0 6 0 C6 0.66 6 1.32 6 2 C6.99 2.33 7.98 2.66 9 3 C3.46153846 3.36923077 3.46153846 3.36923077 1.125 1.5 C0.75375 1.005 0.3825 0.51 0 0 Z " fill="#4F28AC" transform="translate(153,283)"/>
</svg>
